<?xml version="1.0" encoding="UTF-8" standalone="no"?>
<!-- Created with Inkscape (http://www.inkscape.org/) -->
<svg id="svg2" xmlns:rdf="http://www.w3.org/1999/02/22-rdf-syntax-ns#" xmlns="http://www.w3.org/2000/svg" height="32" width="32" version="1.1" xmlns:cc="http://creativecommons.org/ns#" xmlns:dc="http://purl.org/dc/elements/1.1/">
 <metadata id="metadata8">
  <rdf:RDF>
   <cc:Work rdf:about="">
    <dc:format>image/svg+xml</dc:format>
    <dc:type rdf:resource="http://purl.org/dc/dcmitype/StillImage"/>
    <dc:title/>
   </cc:Work>
  </rdf:RDF>
 </metadata>
 <g id="g2998" transform="translate(-0.27121,-0.40641)">
  <path id="path3001" fill="#fefefe" d="m12.271,31.515c0-0.49038-1.1364-1.1768-2.5254-1.5254-3.2279-0.81-6.2472-3.83-7.0574-7.058-0.3486-1.389-1.035-2.525-1.5254-2.525-0.49038,0-0.89159-1.8-0.89159-4s0.40122-4,0.89159-4c0.49038,0,1.1768-1.1364,1.5254-2.5254,0.8102-3.2287,3.8295-6.248,7.0576-7.0582,1.3892-0.3486,2.5252-1.0351,2.5252-1.5254,0-0.49038,1.8-0.89159,4-0.89159s4,0.40122,4,0.89159c0,0.49038,1.1364,1.1768,2.5254,1.5254,3.228,0.81018,6.2474,3.8295,7.0575,7.0575,0.34861,1.389,1.0351,2.5254,1.5254,2.5254,0.49038,0,0.89159,1.8,0.89159,4s-0.40122,4-0.89159,4c-0.49038,0-1.1768,1.1364-1.5254,2.5254-0.81018,3.228-3.8295,6.2474-7.0575,7.0575-1.389,0.34861-2.5254,1.0351-2.5254,1.5254,0,0.49038-1.8,0.89159-4,0.89159s-4-0.40122-4-0.89159z"/>
  <path id="path2999" fill="#f7f407" d="m12.271,31.515c0-0.49038-1.1364-1.1768-2.5254-1.5254-3.2279-0.81-6.2472-3.83-7.0574-7.058-0.3486-1.389-1.035-2.525-1.5254-2.525-0.49038,0-0.89159-1.8-0.89159-4s0.40122-4,0.89159-4c0.49038,0,1.1768-1.1364,1.5254-2.5254,0.8102-3.2287,3.8295-6.248,7.0576-7.0582,1.3892-0.3486,2.5252-1.0351,2.5252-1.5254,0-0.49038,1.8-0.89159,4-0.89159s4,0.40122,4,0.89159c0,0.49038,1.1364,1.1768,2.5254,1.5254,3.228,0.81018,6.2474,3.8295,7.0575,7.0575,0.34861,1.389,1.0351,2.5254,1.5254,2.5254,0.49038,0,0.89159,1.8,0.89159,4s-0.40122,4-0.89159,4c-0.49038,0-1.1768,1.1364-1.5254,2.5254-0.81018,3.228-3.8295,6.2474-7.0575,7.0575-1.389,0.34861-2.5254,1.0351-2.5254,1.5254,0,0.49038-1.8,0.89159-4,0.89159s-4-0.40122-4-0.89159zm11-24.196c0-0.99262-4.8278-2.4176-5.5942-1.6512-0.27558,0.27558,0.2084,1.2105,1.0755,2.0776,1.5545,1.5545,4.5187,1.2748,4.5187-0.4264z"/>
  <path id="path2997" fill="#e0de06" d="m12.271,31.515c0-0.49038-1.1364-1.1768-2.5254-1.5254-3.2279-0.81-6.2472-3.83-7.0574-7.058-0.3486-1.389-1.035-2.525-1.5254-2.525-0.49038,0-0.89159-1.8-0.89159-4s0.40122-4,0.89159-4c0.49038,0,1.1768-1.1364,1.5254-2.5254,0.8102-3.2287,3.8295-6.248,7.0576-7.0582,1.3892-0.3486,2.5252-1.0351,2.5252-1.5254,0-0.49038,1.8-0.89159,4-0.89159s4,0.41425,4,0.92054c0,0.5063,1.35,1.2171,3,1.5795,3.2434,0.71236,3.8924,1.9436,1.5072,2.8589-0.82106,0.31507-2.2836-0.26214-3.25-1.2827-0.96644-1.0206-2.8727-1.7927-4.2362-1.7159-1.9984,0.1126-2.5236,0.71976-2.7087,3.1319-0.17111,2.2293,0.01477,2.6117,0.72903,1.5,0.81779-1.2729,1.0921-1.2851,1.8662-0.082881,0.49911,0.77512,0.68166,2.1251,0.40567,3-0.43775,1.3876-0.36211,1.3992,0.59252,0.09068,0.97274-1.3333,1.2037-1.3333,2.079,0,0.54158,0.825,0.99158,0.98564,1,0.35699,0.0084-0.62866,0.6268-1.3777,1.3742-1.6645,0.99634-0.38233,1.2676,0.26244,1.0168,2.4168-0.28528,2.4501-0.11409,2.7266,1.0305,1.6645,0.99756-0.92575,1.0613-1.4787,0.23324-2.0238-0.82374-0.54225-0.76174-0.99347,0.22382-1.6289,1.1509-0.74207,1.1509-0.96381,0-1.4239-1.1389-0.45529-1.1313-0.70671,0.04616-1.5285,2.1136-1.4751,3.8918-0.35052,4.609,2.9149,0.35231,1.6041,1.0548,2.9165,1.5611,2.9165s0.92054,1.8,0.92054,4-0.40122,4-0.89159,4c-0.49038,0-1.1768,1.1364-1.5254,2.5254-0.81018,3.228-3.8295,6.2474-7.0575,7.0575-1.389,0.34861-2.5254,1.0351-2.5254,1.5254,0,0.49038-1.8,0.89159-4,0.89159s-4-0.40122-4-0.89159zm3.75-1.7977c-0.9625-0.25153-1.75-0.83857-1.75-1.3045,0-0.46597-1.35-1.1437-3-1.5061s-3-1.2607-3-1.9961c0-0.73547-0.50707-1.5062-1.1268-1.7128-0.6196-0.206-1.3519-2.718-1.6271-5.582-0.5878-6.118-2.2459-7.01-2.2459-1.208,0,2.2,0.41425,4,0.92054,4,0.5063,0,1.2171,1.3504,1.5797,3.0009,0.4434,2.0188,1.4276,3.1938,3.0071,3.5902,1.2914,0.32412,2.5914,1.2237,2.889,1.9991,0.30341,0.79067,1.7624,1.3588,3.3224,1.2938,1.6912-0.07053,2.0955-0.29526,1.0314-0.57332zm-0.75-25.311c0-0.55,0.45-1,1-1s1,0.45,1,1-0.45,1-1,1-1-0.45-1-1z"/>
  <path id="path2995" fill="#b0ae04" d="m12.271,31.515c0-0.49038-1.1364-1.1768-2.5254-1.5254-3.2279-0.81-6.2472-3.83-7.0574-7.058-0.3486-1.389-1.035-2.525-1.5254-2.525-0.49038,0-0.89159-1.8-0.89159-4s0.40122-4,0.89159-4c0.49038,0,1.1768-1.1364,1.5254-2.5254,0.8102-3.2287,3.8295-6.248,7.0576-7.0582,1.3892-0.3486,2.5252-1.0351,2.5252-1.5254,0-0.49038,1.8-0.89159,4-0.89159s4,0.40122,4,0.89159c0,0.49038,1.1364,1.1768,2.5254,1.5254,3.228,0.81018,6.2474,3.8295,7.0575,7.0575,0.34861,1.389,1.0351,2.5254,1.5254,2.5254,0.49038,0,0.89159,1.8,0.89159,4s-0.41424,4-0.92054,4-1.2171,1.35-1.5795,3c-0.62861,2.862-1.8515,3.8616-2.7528,2.25-0.23069-0.4125-0.30982-0.25919-0.17585,0.34068,0.60482,2.7081-1.5723,3.9063-6.7069,3.6909-2.862-0.121-5.471-0.648-5.794-1.171-0.324-0.524-1.822-1.262-3.329-1.64-1.5068-0.379-2.7398-1.352-2.7398-2.163,0-1.6378-2.1656-1.3113-2.7405,0.41315-0.20101,0.60302,0.97077,1.3899,2.604,1.7486,1.6332,0.35871,3.2179,1.2997,3.5216,2.0911,0.35404,0.9226,1.9987,1.4389,4.5835,1.4389,2.2173,0,4.0314,0.45,4.0314,1s-1.8,1-4,1-4-0.40122-4-0.89159zm11-3.1084c0-0.55-0.45-1-1-1s-1,0.45-1,1,0.45,1,1,1,1-0.45,1-1zm-17.37-7.25c-0.33164-1.2375-0.60912-3.7125-0.61663-5.5-0.00822-1.9571-0.51995-3.25-1.2864-3.25-1.9551,0-1.7082,7.9774,0.25,8.0789,1.0276,0.05328,1.1163,0.24294,0.27273,0.58333-1.7948,0.72424-1.5418,2.3377,0.36663,2.3377,1.1885,0,1.4569-0.59587,1.0137-2.25zm19.55-3.75c1.6617,0,1.9238-0.45085,1.4228-2.4471-0.43508-1.7335-0.10218-2.7488,1.1416-3.4817,1.1578-0.68226,1.3904-1.2963,0.68283-1.8029-0.591-0.4226-1.364-1.5558-1.719-2.5183-0.35512-0.9625-1.2973-1.75-2.0937-1.75-0.79643,0-1.6171-0.50707-1.8237-1.1268-0.206-0.6198-2.672-1.3475-5.478-1.6172-5.041-0.4844-5.111-0.4527-5.787,2.6269-0.37655,1.7144-1.2114,3.124-1.8552,3.1324-0.84419,0.011043-0.85961,0.22015-0.055326,0.75,0.61337,0.40408,1.4309,1.7461,1.8167,2.9824,0.38579,1.2362,1.7964,2.5225,3.1348,2.8584,1.3383,0.3359,2.4334,1.0119,2.4334,1.5023,0,0.49038,0.675,0.89159,1.5,0.89159s1.5,0.70714,1.5,1.5714c0,1.4286,0.14286,1.4286,1.5714,0,0.86428-0.86429,2.4881-1.5714,3.6084-1.5714zm-17.714-11.85c-0.5635-0.5931-2.4657,0.9102-2.4657,1.9486,0,0.53923,0.62961,0.40017,1.3991-0.30902,0.7696-0.7092,1.2495-1.447,1.0666-1.6396zm3.5341-1.1498c0-0.55-0.45-1-1-1s-1,0.45-1,1,0.45,1,1,1,1-0.45,1-1z"/>
  <path id="path2993" fill="#818003" d="m12.271,31.515c0-0.49038-1.1364-1.1768-2.5254-1.5254-3.2279-0.81-6.2472-3.83-7.0574-7.058-0.3486-1.389-1.035-2.525-1.5254-2.525-0.49038,0-0.89159-1.8-0.89159-4s0.40122-4,0.89159-4c0.49038,0,1.1768-1.1364,1.5254-2.5254,0.8102-3.2287,3.8295-6.248,7.0576-7.0582,1.3892-0.3486,2.5252-1.0351,2.5252-1.5254,0-0.49038,1.8-0.89159,4-0.89159s4,0.40122,4,0.89159c0,0.49038,1.1364,1.1768,2.5254,1.5254,3.228,0.81018,6.2474,3.8295,7.0575,7.0575,0.34861,1.389,1.0351,2.5254,1.5254,2.5254,0.49038,0,0.89159,1.8,0.89159,4s-0.40122,4-0.89159,4c-0.49038,0-1.1768,1.1364-1.5254,2.5254-1.1887,4.7362-4.532,6.9937-10.002,6.7538-2.7081-0.11877-5.1887-0.6445-5.5124-1.1683-0.32372-0.52379-1.8216-1.2618-3.3286-1.64-1.507-0.37823-2.74-1.2764-2.74-1.996,0-0.71954-0.52752-1.4841-1.1723-1.699-0.6595-0.22-1.3698-3.125-1.6243-6.643-0.3924-5.425-0.171-6.515,1.6723-8.2319l2.1244-1.9791v2.539c0,1.3964,0.41425,2.539,0.92055,2.539s1.2171,1.35,1.5795,3c0.63656,2.8982,1.98,3.9555,2.6667,2.0985,0.18333-0.49581,0.99359-0.18516,1.8006,0.69035,1.2993,1.4096,1.2765,1.5186-0.19907,0.95241-1.186-0.45509-1.506-0.22169-1.1103,0.80965,0.30583,0.79699,1.0704,1.5065,1.6991,1.5767,0.62866,0.07019,2.249,0.23824,3.6008,0.37343,1.3518,0.1352,2.6268,0.75276,2.8333,1.3724,0.20654,0.61961,1.013,1.1266,1.7922,1.1266,1.7492,0,1.8813,2.6459,0.16667,3.3377-0.97906,0.39506-0.97226,0.5215,0.03139,0.58333,0.70476,0.04342,1.5719-0.70855,1.9271-1.6711,0.35512-0.9625,1.1155-2.063,1.6897-2.4456,0.57419-0.3826,0.69505-1.0446,0.26857-1.471-0.42648-0.42648-1.1941-0.11344-1.7057,0.69563-0.51167,0.80907-0.9372,0.95732-0.94563,0.32945-0.0084-0.62788-1.1403-1.4239-2.5153-1.7691-2.4054-0.60372-3.5557-2.5894-1.5-2.5894,0.55,0,1,0.45,1,1s0.675,1,1.5,1c1.5568,0,2.0624-1.5188,0.75-2.2528-0.4125-0.23069-0.1875-0.28231,0.5-0.11472,0.6875,0.1676,1.25-0.35616,1.25-1.1639,0-1.7904,1.6642-1.9505,2.2719-0.21862,0.24123,0.6875,0.44748-0.03554,0.45833-1.6068,0.01309-1.8949-0.25657-2.4097-0.80089-1.529-0.45134,0.73029-1.1826,0.94173-1.625,0.46986s-0.24187-1.0588,0.44563-1.3044c1.483-0.52963,1.6926-3.2798,0.25-3.2798-0.55,0-1-0.68912-1-1.5314,0-0.84226-0.7875-1.8219-1.75-2.1771-0.9625-0.35512-2.0711-1.1285-2.4635-1.7186-0.92931-1.3974-12.644-1.3974-13.573,0-0.39244,0.59012-1.501,1.3635-2.4635,1.7186-0.9625,0.35512-1.75,1.2973-1.75,2.0937,0,0.79643-0.5625,1.6356-1.25,1.8647-1.5711,0.5239-1.7279,12.507-0.1794,13.537,0.59012,0.39244,1.3635,1.501,1.7186,2.4635,0.35512,0.9625,1.2973,1.75,2.0937,1.75,0.79643,0,1.6171,0.50708,1.8237,1.1268,0.20659,0.61976,2.7191,1.352,5.5833,1.6272,6.1175,0.58781,7.0091,2.2459,1.2077,2.2459-2.2,0-4-0.40122-4-0.89159zm11-3.1084c0-0.55-0.45-1-1-1s-1,0.45-1,1,0.45,1,1,1,1-0.45,1-1zm6-9.107c0-1.4376-1.7351-1.0257-2.3421,0.55606-0.37166,0.96852-0.07551,1.2647,0.89301,0.89301,0.79699-0.30583,1.4491-0.95792,1.4491-1.4491zm-11,0.10699c0-0.55,0.45-1,1-1s1,0.45,1,1-0.45,1-1,1-1-0.45-1-1z"/>
  <path id="path2991" fill="#4b4a01" d="m12.271,31.515c0-0.49038-1.1364-1.1768-2.5254-1.5254-3.2279-0.81-6.2472-3.83-7.0574-7.058-0.3486-1.389-1.035-2.525-1.5254-2.525-0.49038,0-0.89159-1.8-0.89159-4s0.40122-4,0.89159-4c0.49038,0,1.1768-1.1364,1.5254-2.5254,0.8102-3.2287,3.8295-6.248,7.0576-7.0582,1.3892-0.3486,2.5252-1.0351,2.5252-1.5254,0-0.49038,1.8-0.89159,4-0.89159s4,0.40122,4,0.89159c0,0.49038,1.1364,1.1768,2.5254,1.5254,3.228,0.81018,6.2474,3.8295,7.0575,7.0575,0.34861,1.389,1.0351,2.5254,1.5254,2.5254,0.49038,0,0.89159,1.8,0.89159,4s-0.40122,4-0.89159,4c-0.49038,0-1.1768,1.1364-1.5254,2.5254-0.81018,3.228-3.8295,6.2474-7.0575,7.0575-1.389,0.34861-2.5254,1.0351-2.5254,1.5254,0,0.49038-1.8,0.89159-4,0.89159s-4-0.40122-4-0.89159zm10.791-2.9816c0.20659-0.61976,1.0272-1.1268,1.8237-1.1268,0.79643,0,1.7386-0.7875,2.0937-1.75,0.35512-0.9625,1.1285-2.0711,1.7186-2.4635,1.5485-1.0298,1.3917-13.014-0.17706-13.536-0.6875-0.22917-1.25-1.0683-1.25-1.8647,0-0.79643-0.7875-1.7386-1.75-2.0937-0.9625-0.35512-2.0711-1.1285-2.4635-1.7186-0.92931-1.3974-12.644-1.3974-13.573,0-0.39244,0.59012-1.501,1.3635-2.4635,1.7186-0.9625,0.35512-1.75,1.2973-1.75,2.0937,0,0.79643-0.5625,1.6356-1.25,1.8647-1.5691,0.524-1.7259,12.507-0.1774,13.537,0.59012,0.39244,1.3635,1.501,1.7186,2.4635,0.35512,0.9625,1.3348,1.75,2.1771,1.75,0.84226,0,1.5314,0.417,1.5314,0.92668,0,0.50967,0.7875,1.1558,1.75,1.4358,2.9397,0.85518,11.642-0.03779,12.041-1.2356zm-7.0411-1.7972c-0.9625-0.26194-1.75-0.89327-1.75-1.4029,0-0.50967-1.125-0.92668-2.5-0.92668-2.3357,0-3.5455-2.2486-1.75-3.2528,0.4125-0.23069,0.1875-0.28231-0.5-0.11472-0.6875,0.1676-1.25-0.35616-1.25-1.1639s-0.45-1.4686-1-1.4686-1-1.575-1-3.5c0-3.7635,1.8505-4.7877,2.7103-1.5,0.28766,1.1,0.87174,2,1.298,2,0.42623,0,1.0556,1.1181,1.3986,2.4848,0.38474,1.5329,1.5755,2.7237,3.1084,3.1084,1.3666,0.343,2.4848,1.0249,2.4848,1.5152,0,0.49038,0.7875,0.89848,1.75,0.9069,2.0061,0.01755,4.9252,1.6428,4.219,2.349-0.84259,0.84259-5.4205,1.4547-7.219,0.96527z"/>
  <path id="path2989" fill="#000" d="m12.271,31.515c0-0.49038-1.1364-1.1768-2.5254-1.5254-3.2279-0.81-6.2472-3.83-7.0574-7.058-0.3486-1.389-1.035-2.525-1.5254-2.525-0.49038,0-0.89159-1.8-0.89159-4s0.40122-4,0.89159-4c0.49038,0,1.1768-1.1364,1.5254-2.5254,0.8102-3.2287,3.8295-6.248,7.0576-7.0582,1.3892-0.3486,2.5252-1.0351,2.5252-1.5254,0-0.49038,1.8-0.89159,4-0.89159s4,0.40122,4,0.89159c0,0.49038,1.1364,1.1768,2.5254,1.5254,3.228,0.81018,6.2474,3.8295,7.0575,7.0575,0.34861,1.389,1.0351,2.5254,1.5254,2.5254,0.49038,0,0.89159,1.8,0.89159,4s-0.40122,4-0.89159,4c-0.49038,0-1.1768,1.1364-1.5254,2.5254-0.81018,3.228-3.8295,6.2474-7.0575,7.0575-1.389,0.34861-2.5254,1.0351-2.5254,1.5254,0,0.49038-1.8,0.89159-4,0.89159s-4-0.40122-4-0.89159zm10.791-2.9816c0.20659-0.61976,1.0272-1.1268,1.8237-1.1268,0.79643,0,1.7386-0.7875,2.0937-1.75,0.35512-0.9625,1.1285-2.0711,1.7186-2.4635,1.5485-1.0298,1.3917-13.014-0.17706-13.536-0.6875-0.22917-1.25-1.0683-1.25-1.8647,0-0.79643-0.7875-1.7386-1.75-2.0937-0.9625-0.35512-2.0711-1.1285-2.4635-1.7186-0.92931-1.3974-12.644-1.3974-13.573,0-0.39244,0.59012-1.501,1.3635-2.4635,1.7186-0.9625,0.35512-1.75,1.2973-1.75,2.0937,0,0.79643-0.5625,1.6356-1.25,1.8647-1.5691,0.524-1.7259,12.507-0.1774,13.537,0.59012,0.39244,1.3635,1.501,1.7186,2.4635,0.35512,0.9625,1.3348,1.75,2.1771,1.75,0.84226,0,1.5314,0.417,1.5314,0.92668,0,0.50967,0.7875,1.1558,1.75,1.4358,2.9397,0.85518,11.642-0.03779,12.041-1.2356z"/>
 </g>
</svg>